<?xml version="1.0" encoding="UTF-8" standalone="no"?>
<!DOCTYPE svg PUBLIC "-//W3C//DTD SVG 1.1//EN" "http://www.w3.org/Graphics/SVG/1.1/DTD/svg11.dtd">
<!-- Created with Vectornator (http://vectornator.io/) -->
<svg height="100%" stroke-miterlimit="10" style="fill-rule:nonzero;clip-rule:evenodd;stroke-linecap:round;stroke-linejoin:round;" version="1.1" viewBox="0 0 1024 1024" width="100%" xml:space="preserve" xmlns="http://www.w3.org/2000/svg" xmlns:vectornator="http://vectornator.io" xmlns:xlink="http://www.w3.org/1999/xlink">
<defs/>
<g id="Calque-1" vectornator:layerName="Calque 1">
<path d="M315.5 285.5C287.886 285.5 265.5 307.886 265.5 335.5L265.5 735.5C265.5 763.114 287.886 785.5 315.5 785.5L715.5 785.5C743.114 785.5 765.5 763.114 765.5 735.5L765.5 335.5C765.5 307.886 743.114 285.5 715.5 285.5L315.5 285.5ZM332 335.5L692 335.5C703.046 335.5 712 344.454 712 355.5L712 715.5C712 726.546 703.046 735.5 692 735.5L332 735.5C320.954 735.5 312 726.546 312 715.5L312 355.5C312 344.454 320.954 335.5 332 335.5Z" fill="#000000" fill-rule="nonzero" opacity="1" stroke="#000000" stroke-linecap="butt" stroke-linejoin="miter" stroke-width="1.15935"/>
<path d="M765.5 248C765.5 219.557 788.557 196.5 817 196.5C845.443 196.5 868.5 219.557 868.5 248C868.5 276.443 845.443 299.5 817 299.5C788.557 299.5 765.5 276.443 765.5 248Z" fill="#000000" fill-rule="nonzero" opacity="1" stroke="#000000" stroke-linecap="butt" stroke-linejoin="miter" stroke-width="1.15935" vectornator:layerName="Ovale 1"/>
<path d="M343.5 421L403.5 421L403.5 481L343.5 481L343.5 421Z" fill="none" opacity="1" stroke="#000000" stroke-linecap="butt" stroke-linejoin="miter" stroke-width="1.15935" vectornator:layerName="Rectangle 2"/>
<path d="M343.5 505.5L403.5 505.5L403.5 565.5L343.5 565.5L343.5 505.5Z" fill="none" opacity="1" stroke="#000000" stroke-linecap="butt" stroke-linejoin="miter" stroke-width="1.15935" vectornator:layerName="Rectangle 3"/>
<path d="M343.5 593L403.5 593L403.5 653L343.5 653L343.5 593Z" fill="none" opacity="1" stroke="#000000" stroke-linecap="butt" stroke-linejoin="miter" stroke-width="1.15935" vectornator:layerName="Rectangle 4"/>
<path d="M326.276 443.042C325.154 442.061 325.04 440.355 326.021 439.232L332.999 431.253C333.981 430.131 335.686 430.016 336.809 430.998L378.182 467.178C379.305 468.16 379.419 469.866 378.437 470.988L371.46 478.968C370.478 480.09 368.772 480.204 367.65 479.223L326.276 443.042Z" fill="#000000" fill-rule="nonzero" opacity="1" stroke="#000000" stroke-linecap="butt" stroke-linejoin="miter" stroke-width="1.15935" vectornator:layerName="Rectangle 5"/>
<path d="M427.868 394.183C428.857 393.068 430.562 392.966 431.676 393.955L439.609 400.992C440.724 401.981 440.826 403.686 439.837 404.801L374.032 478.982C373.043 480.096 371.338 480.198 370.224 479.21L362.291 472.172C361.176 471.184 361.074 469.479 362.063 468.364L427.868 394.183Z" fill="#000000" fill-rule="nonzero" opacity="1" stroke="#000000" stroke-linecap="butt" stroke-linejoin="miter" stroke-width="1.15935" vectornator:layerName="Rectangle 6"/>
<path d="M326.276 528.652C325.154 527.67 325.04 525.965 326.021 524.842L332.999 516.863C333.981 515.74 335.686 515.626 336.809 516.608L378.182 552.788C379.305 553.77 379.419 555.475 378.437 556.598L371.46 564.577C370.478 565.7 368.772 565.814 367.65 564.832L326.276 528.652Z" fill="#000000" fill-rule="nonzero" opacity="1" stroke="#000000" stroke-linecap="butt" stroke-linejoin="miter" stroke-width="1.15935" vectornator:layerName="Rectangle 7"/>
<path d="M427.868 479.793C428.857 478.678 430.562 478.576 431.676 479.565L439.609 486.602C440.724 487.591 440.826 489.296 439.837 490.41L374.032 564.592C373.043 565.706 371.338 565.808 370.224 564.82L362.291 557.782C361.176 556.794 361.074 555.089 362.063 553.974L427.868 479.793Z" fill="#000000" fill-rule="nonzero" opacity="1" stroke="#000000" stroke-linecap="butt" stroke-linejoin="miter" stroke-width="1.15935" vectornator:layerName="Rectangle 8"/>
<path d="M453.246 444.436C453.246 442.945 454.454 441.736 455.946 441.736L646.636 441.736C648.127 441.736 649.336 442.945 649.336 444.436L649.336 457.564C649.336 459.055 648.127 460.264 646.636 460.264L455.946 460.264C454.454 460.264 453.246 459.055 453.246 457.564L453.246 444.436Z" fill="#000000" fill-rule="nonzero" opacity="1" stroke="#000000" stroke-linecap="butt" stroke-linejoin="miter" stroke-width="1.15935" vectornator:layerName="Rectangle 9"/>
<path d="M453.246 616.436C453.246 614.945 454.454 613.736 455.946 613.736L646.636 613.736C648.127 613.736 649.336 614.945 649.336 616.436L649.336 629.564C649.336 631.055 648.127 632.264 646.636 632.264L455.946 632.264C454.454 632.264 453.246 631.055 453.246 629.564L453.246 616.436Z" fill="#000000" fill-rule="nonzero" opacity="1" stroke="#000000" stroke-linecap="butt" stroke-linejoin="miter" stroke-width="1.15935" vectornator:layerName="Rectangle 10"/>
<path d="M453.246 528.936C453.246 527.445 454.454 526.236 455.946 526.236L646.636 526.236C648.127 526.236 649.336 527.445 649.336 528.936L649.336 542.064C649.336 543.555 648.127 544.764 646.636 544.764L455.946 544.764C454.454 544.764 453.246 543.555 453.246 542.064L453.246 528.936Z" fill="#000000" fill-rule="nonzero" opacity="1" stroke="#000000" stroke-linecap="butt" stroke-linejoin="miter" stroke-width="1.15935" vectornator:layerName="Rectangle 11"/>
</g>
</svg>
